<svg width="80" height="56" viewBox="0 0 80 56" fill="none" xmlns="http://www.w3.org/2000/svg">
<path d="M0 0.470063H2.72959L7.69463 8.76667L12.6597 0.470063H15.401L8.87118 10.7762V17.7331H6.52985V10.7762L0 0.470063Z" fill="#F3F3F3"/>
<path d="M24.8723 0C27.9234 0 30.1824 0.979298 31.6492 2.93789C32.7944 4.4656 33.3669 6.42028 33.3669 8.80193C33.3669 11.3794 32.712 13.5221 31.4021 15.23C29.8647 17.2356 27.6724 18.2384 24.8252 18.2384C22.1662 18.2384 20.0759 17.361 18.5542 15.6061C17.1972 13.9139 16.5188 11.7751 16.5188 9.18973C16.5188 6.85508 17.0992 4.85732 18.26 3.19643C19.7503 1.06548 21.9544 0 24.8723 0ZM25.1076 16.1467C27.1705 16.1467 28.6607 15.4102 29.5785 13.9374C30.504 12.4567 30.9668 10.7566 30.9668 8.83718C30.9668 6.80808 30.4334 5.17461 29.3667 3.93678C28.3078 2.69894 26.8567 2.08003 25.0134 2.08003C23.2251 2.08003 21.7662 2.69503 20.6367 3.92503C19.5072 5.14719 18.9424 6.95301 18.9424 9.3425C18.9424 11.2541 19.4248 12.868 20.3896 14.1841C21.3622 15.4925 22.9349 16.1467 25.1076 16.1467Z" fill="#F3F3F3"/>
<path d="M38.7085 0.470063V11.1405C38.7085 12.394 38.9438 13.436 39.4144 14.2664C40.1125 15.5199 41.289 16.1467 42.9441 16.1467C44.9285 16.1467 46.2776 15.469 46.9914 14.1136C47.3757 13.3772 47.5679 12.3862 47.5679 11.1405V0.470063H49.9445V10.1651C49.9445 12.2882 49.6582 13.9217 49.0856 15.0655C48.0346 17.1495 46.0501 18.1914 43.1323 18.1914C40.2145 18.1914 38.2339 17.1495 37.1907 15.0655C36.6181 13.9217 36.3318 12.2882 36.3318 10.1651V0.470063H38.7085Z" fill="#F3F3F3"/>
<path d="M53.7448 5.48798C54.1762 5.41747 54.5017 5.17461 54.7213 4.75939C54.9488 4.34416 55.0625 3.86627 55.0625 3.3257C55.0625 3.27085 55.0586 3.22385 55.0508 3.18468C55.0508 3.13767 55.0429 3.08675 55.0272 3.03191H53.7448V0.470063H56.2626V2.83213C56.2626 3.83493 56.0547 4.68888 55.639 5.39397C55.2233 6.09123 54.5919 6.49079 53.7448 6.59263V5.48798Z" fill="#F3F3F3"/>
<path d="M58.7216 5.14719H60.7335V7.32123C60.8982 6.89817 61.3022 6.38502 61.9453 5.78177C62.5885 5.17069 63.3297 4.86515 64.169 4.86515C64.2082 4.86515 64.2749 4.86907 64.369 4.8769C64.4632 4.88474 64.6239 4.90041 64.8514 4.92391V7.15671C64.7259 7.1332 64.6083 7.11754 64.4984 7.1097C64.3965 7.10187 64.2827 7.09795 64.1572 7.09795C63.0905 7.09795 62.2708 7.44266 61.6983 8.13209C61.1257 8.81368 60.8394 9.60104 60.8394 10.4942V17.7331H58.7216V5.14719Z" fill="#F3F3F3"/>
<path d="M71.9342 4.86515C72.8284 4.86515 73.6951 5.07668 74.5344 5.49974C75.3737 5.91496 76.0129 6.45553 76.4522 7.12145C76.8757 7.75604 77.1581 8.49639 77.2993 9.3425C77.4248 9.92224 77.4875 10.8467 77.4875 12.1159H68.2516C68.2909 13.3929 68.5928 14.4192 69.1576 15.1948C69.7223 15.9626 70.5969 16.3464 71.7813 16.3464C72.8872 16.3464 73.7697 15.9821 74.4285 15.2535C74.805 14.8305 75.0717 14.3408 75.2286 13.7846H77.3111C77.2562 14.2468 77.0718 14.7639 76.7581 15.3358C76.4522 15.8999 76.1071 16.3621 75.7227 16.7225C75.0795 17.3492 74.2834 17.7723 73.3343 17.9917C72.8245 18.117 72.248 18.1797 71.6048 18.1797C70.0361 18.1797 68.7066 17.6117 67.6163 16.4757C66.526 15.3319 65.9809 13.7337 65.9809 11.6811C65.9809 9.65979 66.53 8.01849 67.6281 6.75715C68.7262 5.49582 70.1616 4.86515 71.9342 4.86515ZM75.3109 10.4354C75.2247 9.51877 75.0246 8.78626 74.7109 8.23785C74.1305 7.21938 73.1618 6.71015 71.8048 6.71015C70.8322 6.71015 70.0165 7.0627 69.3576 7.76779C68.6987 8.46505 68.3497 9.35425 68.3105 10.4354H75.3109Z" fill="#F3F3F3"/>
<path d="M4.64549 48.491C4.48485 48.491 4.29208 48.475 4.06719 48.4429C3.85836 48.4108 3.67363 48.3707 3.51299 48.3226C3.35235 48.2744 3.27203 48.2343 3.27203 48.2022C3.27203 48.1701 3.34432 48.138 3.48889 48.106C3.64953 48.0899 3.92262 48.0819 4.30815 48.0819C4.70974 48.0819 5.14347 47.9856 5.60932 47.7931C6.09123 47.5845 6.54905 47.3438 6.98277 47.0711C7.4165 46.7983 7.78596 46.5576 8.09118 46.349C8.57309 45.9961 9.07107 45.5468 9.58511 45.0013C10.0992 44.4397 10.4606 43.83 10.6694 43.1722C10.7015 43.0599 10.7417 42.9074 10.7899 42.7149C10.8381 42.5224 10.8622 42.3298 10.8622 42.1373C10.8622 41.9608 10.8301 41.8164 10.7658 41.7041C10.7015 41.5757 10.5811 41.5115 10.4044 41.5115C10.0831 41.5115 9.74575 41.5998 9.39235 41.7763C9.05501 41.9528 8.7257 42.1614 8.40442 42.402C8.09921 42.6267 7.83416 42.8433 7.60926 43.0518C7.4165 43.1962 7.18357 43.4128 6.91049 43.7017C6.6374 43.9905 6.36432 44.3114 6.09123 44.6643C5.83421 45.0173 5.62538 45.3703 5.46474 45.7233C5.3041 46.0602 5.24788 46.3651 5.29607 46.6379C5.3282 46.702 5.3041 46.8304 5.22379 47.0229C5.15953 47.2155 5.03905 47.3117 4.86235 47.3117C4.71778 47.3117 4.54911 47.1754 4.35634 46.9026C4.24389 46.7742 4.18767 46.5095 4.18767 46.1084C4.18767 45.7393 4.22783 45.3382 4.30815 44.905C4.38847 44.4718 4.46075 44.1188 4.52501 43.8461C4.36437 44.0386 4.2198 44.2472 4.09129 44.4718C3.97884 44.6804 3.73788 44.9933 3.36841 45.4104C3.30416 45.4746 3.23187 45.5067 3.15155 45.5067C3.03911 45.5067 2.98288 45.4425 2.98288 45.3142C2.98288 45.2179 3.01501 45.1377 3.07927 45.0735C3.65756 44.3354 4.13948 43.7097 4.52501 43.1962C4.9266 42.6668 5.17559 42.2897 5.27198 42.0651C5.40049 41.7281 5.56916 41.2949 5.77799 40.7655C6.00288 40.236 6.25187 39.6744 6.52496 39.0807C6.79804 38.471 7.07916 37.8854 7.36831 37.3238C7.65746 36.7462 7.93857 36.2488 8.21166 35.8317C8.45261 35.4626 8.73373 35.0936 9.05501 34.7246C9.37628 34.3395 9.73772 34.0266 10.1393 33.786C10.5409 33.5292 10.9746 33.4009 11.4405 33.4009C11.6172 33.4009 11.81 33.425 12.0188 33.4731C12.0348 33.4731 12.075 33.4891 12.1393 33.5212L12.3802 33.5934C12.4123 33.6095 12.4364 33.6175 12.4525 33.6175C12.4686 33.6175 12.4846 33.6255 12.5007 33.6416C12.9505 33.9143 13.1754 34.2914 13.1754 34.7727C13.1754 35.1578 13.0469 35.591 12.7898 36.0723C12.565 36.5216 12.1955 37.0431 11.6814 37.6367C11.1835 38.2143 10.6052 38.808 9.94655 39.4177C9.304 40.0113 8.63735 40.589 7.9466 41.1505C7.27192 41.6961 6.65347 42.1614 6.09123 42.5464C5.93059 42.8513 5.78602 43.2043 5.65751 43.6054C5.529 44.0065 5.42458 44.4076 5.34426 44.8087C5.66554 44.3434 6.02698 43.8942 6.42857 43.461C6.83017 43.0117 7.18357 42.6587 7.48878 42.402C7.98676 41.9849 8.46868 41.6559 8.93453 41.4153C9.41644 41.1586 9.8582 41.0302 10.2598 41.0302C10.4526 41.0302 10.6855 41.0944 10.9586 41.2227C11.2477 41.3511 11.5047 41.5196 11.7296 41.7281C11.9706 41.9207 12.1071 42.1293 12.1393 42.3539C12.1393 42.402 12.1393 42.4502 12.1393 42.4983C12.1553 42.5304 12.1634 42.5705 12.1634 42.6186C12.1634 43.0518 12.0429 43.4931 11.8019 43.9423C11.561 44.3916 11.2558 44.8168 10.8863 45.2179C10.5329 45.619 10.1554 45.98 9.75378 46.3009C9.36825 46.6218 9.02288 46.8866 8.71767 47.0951C8.10724 47.4963 7.45666 47.8252 6.76591 48.0819C6.09123 48.3547 5.38442 48.491 4.64549 48.491ZM6.35629 41.5837C7.09522 41.1024 7.83416 40.5328 8.57309 39.875C9.31203 39.2171 9.99474 38.5272 10.6212 37.8052C11.2638 37.0832 11.7778 36.4093 12.1634 35.7835C12.4043 35.3985 12.5248 35.0214 12.5248 34.6524C12.5248 34.4759 12.4846 34.3315 12.4043 34.2192C12.3401 34.0908 12.2276 34.0266 12.067 34.0266C11.9545 34.0266 11.818 34.0587 11.6573 34.1229C11.5128 34.1871 11.3521 34.2994 11.1754 34.4598C10.5008 34.9733 9.87426 35.6151 9.29596 36.3852C8.71767 37.1554 8.18756 37.9897 7.70565 38.8882C7.22373 39.7707 6.77394 40.6692 6.35629 41.5837Z" fill="#F3F3F3"/>
<path d="M15.075 48.1782C14.3521 48.1782 13.7256 48.0097 13.1955 47.6727C12.6654 47.3358 12.4004 46.8224 12.4004 46.1324C12.4004 45.7634 12.5128 45.3142 12.7377 44.7847C12.8983 44.4156 13.1955 43.9905 13.6292 43.5091C14.063 43.0278 14.569 42.5625 15.1473 42.1132C15.7256 41.6479 16.3119 41.2709 16.9063 40.9821C17.5006 40.6772 18.0388 40.5248 18.5207 40.5248C18.6974 40.5248 18.858 40.5489 19.0026 40.597C19.2757 40.6933 19.4604 40.8457 19.5568 41.0543C19.6692 41.2628 19.7255 41.4795 19.7255 41.7041C19.7255 41.9127 19.6933 42.1132 19.6291 42.3058C19.5648 42.4983 19.4845 42.6668 19.3881 42.8112C19.099 43.2444 18.6813 43.6295 18.1351 43.9664C17.605 44.3033 17.0589 44.5681 16.4966 44.7606C15.9505 44.9532 15.5007 45.0655 15.1473 45.0976H15.0991C14.8903 45.0976 14.7858 45.0334 14.7858 44.905C14.7858 44.8248 14.8501 44.7847 14.9786 44.7847C15.3641 44.7526 15.8461 44.5761 16.4243 44.2552C17.0187 43.9183 17.5408 43.5733 17.9906 43.2203C18.1833 43.0599 18.4082 42.8352 18.6653 42.5464C18.9383 42.2576 19.0749 41.9768 19.0749 41.7041C19.0749 41.4153 18.9383 41.2709 18.6653 41.2709C18.5207 41.2709 18.3681 41.303 18.2074 41.3671C18.0629 41.4313 17.9424 41.4794 17.846 41.5115C17.3801 41.7362 16.8661 42.0891 16.3039 42.5705C15.7416 43.0358 15.2276 43.5653 14.7617 44.1589C14.312 44.7365 13.9987 45.3222 13.822 45.9158C13.7738 46.0442 13.7417 46.1726 13.7256 46.3009C13.7096 46.4132 13.7015 46.5255 13.7015 46.6379C13.7015 47.0229 13.822 47.2957 14.063 47.4561C14.32 47.6166 14.6252 47.6968 14.9786 47.6968C15.5087 47.6968 16.0549 47.5845 16.6171 47.3599C17.1793 47.1192 17.7255 46.8143 18.2556 46.4453C18.7857 46.0763 19.2676 45.6832 19.7014 45.266C20.1512 44.8328 20.5287 44.4156 20.8339 44.0145C20.8821 43.9503 20.9383 43.9183 21.0025 43.9183C21.0668 43.9022 21.107 43.9102 21.123 43.9423C21.1873 43.9584 21.2194 44.0065 21.2194 44.0867C21.2194 44.1509 21.2033 44.2151 21.1712 44.2793C20.7214 44.905 20.1753 45.5147 19.5327 46.1084C18.9062 46.702 18.2074 47.1994 17.4364 47.6005C16.6814 47.9856 15.8942 48.1782 15.075 48.1782Z" fill="#F3F3F3"/>
<path d="M27.2996 48.0578C27.0265 48.0578 26.7695 47.9936 26.5286 47.8653C26.3037 47.7369 26.135 47.4963 26.0225 47.1433C25.9744 46.9989 25.9503 46.7983 25.9503 46.5416C25.9503 46.1886 25.9985 45.7955 26.0948 45.3623C26.1912 44.9291 26.2956 44.5601 26.4081 44.2552C26.3278 44.2873 26.1752 44.4317 25.9503 44.6884C25.7414 44.9291 25.4764 45.2259 25.1551 45.5789C24.8499 45.9158 24.5045 46.2608 24.119 46.6138C23.7495 46.9507 23.364 47.2315 22.9624 47.4561C22.5608 47.6808 22.1672 47.7931 21.7817 47.7931C21.5247 47.7931 21.2516 47.7209 20.9624 47.5765C20.6733 47.416 20.4404 47.2155 20.2637 46.9748C20.0227 46.6539 19.9022 46.325 19.9022 45.988C19.9022 45.5548 20.0468 45.1056 20.336 44.6403C20.6412 44.175 21.0267 43.7257 21.4925 43.2925C21.9745 42.8433 22.4805 42.4421 23.0106 42.0891C23.5567 41.7201 24.0708 41.4153 24.5527 41.1746C25.0507 40.9179 25.4523 40.7494 25.7575 40.6692C26.0788 40.5729 26.4402 40.5248 26.8418 40.5248C27.0667 40.5248 27.2996 40.5569 27.5406 40.621C27.7815 40.6692 27.9823 40.7574 28.143 40.8858C28.2715 40.95 28.3759 41.0382 28.4562 41.1505C28.5365 41.2628 28.5767 41.3832 28.5767 41.5115C28.5767 41.6399 28.5205 41.68 28.408 41.6319C28.2795 41.4393 28.1028 41.319 27.8779 41.2709C27.6691 41.2067 27.4522 41.1746 27.2273 41.1746C26.5848 41.1746 25.878 41.3832 25.1069 41.8003C24.3358 42.2175 23.6451 42.7069 23.0347 43.2684C22.8419 43.4289 22.5769 43.7097 22.2395 44.1108C21.9182 44.4959 21.6211 44.9211 21.348 45.3864C21.0749 45.8517 20.9383 46.2768 20.9383 46.6619C20.9383 46.8705 20.9946 47.055 21.107 47.2155C21.1713 47.3278 21.2757 47.3839 21.4203 47.3839C21.6452 47.3839 21.9423 47.2636 22.3118 47.0229C22.6973 46.7823 23.0909 46.4935 23.4925 46.1565C23.8941 45.8035 24.2555 45.4666 24.5768 45.1457C24.9141 44.8248 25.1551 44.5921 25.2997 44.4477C25.38 44.3675 25.5326 44.2071 25.7575 43.9664C25.9984 43.7097 26.2555 43.4369 26.5286 43.1481C26.8016 42.8593 27.0426 42.6106 27.2514 42.402C27.4763 42.1934 27.6209 42.0891 27.6852 42.0891C27.7655 42.0891 27.894 42.1132 28.0707 42.1614C28.2635 42.1934 28.4241 42.2496 28.5526 42.3298C28.6811 42.41 28.7052 42.5143 28.6249 42.6427C28.2072 43.2524 27.8699 43.8942 27.6129 44.5681C27.3719 45.2259 27.2273 45.7474 27.1791 46.1324C27.1631 46.1966 27.155 46.2608 27.155 46.325C27.155 46.3731 27.155 46.4293 27.155 46.4935C27.155 47.1352 27.3799 47.4561 27.8297 47.4561C28.0707 47.4561 28.392 47.3117 28.7936 47.0229C29.1952 46.7341 29.6048 46.3892 30.0224 45.988C30.4401 45.5869 30.8176 45.2018 31.1549 44.8328C31.5083 44.4477 31.7493 44.1589 31.8778 43.9664C31.926 43.9183 31.9742 43.8942 32.0224 43.8942C32.0866 43.8942 32.1429 43.9263 32.1911 43.9905C32.2392 44.0386 32.2392 44.1028 32.1911 44.183C32.0144 44.4718 31.7573 44.8168 31.42 45.2179C31.0826 45.619 30.7052 46.0201 30.2875 46.4212C29.8698 46.8224 29.4602 47.1673 29.0586 47.4561C28.8498 47.6166 28.5847 47.753 28.2634 47.8653C27.9422 47.9936 27.6209 48.0578 27.2996 48.0578Z" fill="#F3F3F3"/>
<path d="M37.9289 48.0578C37.6397 48.0578 37.3827 47.9936 37.1578 47.8653C36.9329 47.7369 36.7642 47.4963 36.6518 47.1433C36.6357 47.063 36.6116 46.9748 36.5795 46.8785C36.5634 46.7662 36.5554 46.6539 36.5554 46.5416C36.5554 46.1565 36.6036 45.7233 36.7 45.242C36.8124 44.7606 36.9329 44.3595 37.0614 44.0386C36.9971 44.0867 36.8847 44.2472 36.7241 44.5199C36.5634 44.7927 36.3626 45.1136 36.1217 45.4826C35.8807 45.8356 35.6076 46.1966 35.3024 46.5657C35.0133 46.9186 34.692 47.2155 34.3386 47.4561C34.0012 47.6808 33.6398 47.7931 33.2543 47.7931C32.9973 47.7931 32.684 47.7209 32.3145 47.5765C31.9611 47.4321 31.7041 47.2315 31.5435 46.9748C31.3828 46.7181 31.3025 46.3972 31.3025 46.0121C31.3025 45.5468 31.4069 45.0414 31.6158 44.4959C31.8246 43.9343 32.0896 43.4128 32.4109 42.9315C32.5234 42.7711 32.6519 42.5785 32.7965 42.3539C32.941 42.1293 33.0856 41.9367 33.2302 41.7763C33.3748 41.5998 33.4792 41.5035 33.5434 41.4875C33.7362 41.4233 33.9611 41.3912 34.2181 41.3912C34.4912 41.3912 34.692 41.4233 34.8205 41.4875C34.9329 41.5356 34.9892 41.5918 34.9892 41.6559C34.9892 41.7362 34.9249 41.8405 34.7964 41.9688C34.6197 42.1293 34.3787 42.3699 34.0735 42.6908C33.7683 43.0117 33.4631 43.3968 33.1579 43.8461C32.8687 44.2953 32.6278 44.7927 32.435 45.3382C32.2744 45.7714 32.1941 46.1485 32.1941 46.4694C32.1941 47.031 32.419 47.3117 32.8687 47.3117C33.2543 47.3117 33.6639 47.1513 34.0976 46.8304C34.5314 46.5095 34.949 46.1164 35.3506 45.6511C35.7683 45.1858 36.1377 44.7285 36.459 44.2793C36.7964 43.814 37.0534 43.4449 37.2301 43.1722C37.3907 42.9475 37.5674 42.6587 37.7602 42.3058C37.969 41.9528 38.1698 41.6078 38.3626 41.2709C38.5553 40.9339 38.7079 40.6852 38.8204 40.5248C38.9328 40.5248 39.1015 40.5489 39.3264 40.597C39.5674 40.6291 39.7682 40.6932 39.9288 40.7895C40.1055 40.8858 40.1537 41.0061 40.0734 41.1505C39.977 41.311 39.8244 41.5597 39.6156 41.8966C39.4228 42.2336 39.222 42.5785 39.0132 42.9315C38.8204 43.2684 38.6678 43.5412 38.5553 43.7498C38.1698 44.4879 37.9208 45.2821 37.8084 46.1324C37.7923 46.1966 37.7843 46.2608 37.7843 46.325C37.7843 46.3731 37.7843 46.4293 37.7843 46.4935C37.7843 47.1352 38.0011 47.4561 38.4349 47.4561C38.6758 47.4561 38.9971 47.3117 39.3987 47.0229C39.8003 46.7341 40.2099 46.3892 40.6276 45.988C41.0613 45.5869 41.4468 45.2018 41.7842 44.8328C42.1376 44.4477 42.3785 44.1589 42.507 43.9664C42.5392 43.9183 42.5874 43.8942 42.6516 43.8942C42.7159 43.8942 42.7641 43.9183 42.7962 43.9664C42.8444 44.0145 42.8444 44.0787 42.7962 44.1589C42.6516 44.4317 42.4026 44.7767 42.0492 45.1938C41.7119 45.5949 41.3344 46.0041 40.9167 46.4212C40.4991 46.8224 40.0894 47.1673 39.6878 47.4561C39.479 47.6166 39.214 47.753 38.8927 47.8653C38.5714 47.9936 38.2501 48.0578 37.9289 48.0578Z" fill="#F3F3F3"/>
<path d="M43.3826 48.0578C43.0934 48.0578 42.8284 47.9936 42.5874 47.8653C42.3625 47.7369 42.1939 47.4963 42.0814 47.1433C42.0653 47.0951 42.0493 47.047 42.0332 46.9989C42.0332 46.9507 42.0332 46.8946 42.0332 46.8304C42.0332 46.5095 42.1055 46.1084 42.2501 45.627C42.3947 45.1457 42.5714 44.6804 42.7802 44.2311C42.6838 44.3595 42.5714 44.5199 42.4428 44.7125C42.3143 44.889 42.1296 45.1216 41.8886 45.4104C41.8244 45.4746 41.7521 45.5067 41.6718 45.5067C41.5593 45.5067 41.5031 45.4425 41.5031 45.3142C41.5031 45.2179 41.5352 45.1377 41.5995 45.0735C42.0172 44.544 42.3866 44.0707 42.7079 43.6535C43.0452 43.2364 43.2942 42.8834 43.4549 42.5946C43.4549 42.5625 43.5031 42.4662 43.5994 42.3058C43.6958 42.1293 43.8243 41.8886 43.985 41.5837C43.8565 41.5998 43.744 41.6158 43.6476 41.6319C43.5673 41.6319 43.495 41.6319 43.4308 41.6319C43.3183 41.6319 43.2219 41.5837 43.1416 41.4875C43.0613 41.3912 43.0533 41.2709 43.1175 41.1265C43.1978 40.9018 43.3745 40.7735 43.6476 40.7414C43.9207 40.7093 44.1617 40.6852 44.3705 40.6692C44.3866 40.6371 44.4187 40.621 44.4669 40.621C44.6597 40.2681 44.8444 39.9231 45.0211 39.5862C45.1978 39.2492 45.3424 38.9684 45.4548 38.7438C45.5833 38.5192 45.6476 38.3988 45.6476 38.3828C45.9689 37.8694 46.1777 37.5324 46.2741 37.372C46.3704 37.1955 46.499 37.0912 46.6596 37.0591C46.8363 37.0431 47.021 37.0511 47.2138 37.0832C47.4226 37.1153 47.5592 37.1875 47.6234 37.2998C47.6716 37.364 47.6957 37.4442 47.6957 37.5404C47.6957 37.6848 47.6636 37.8293 47.5993 37.9737C47.5351 38.102 47.4708 38.2063 47.4066 38.2865C47.3423 38.3988 47.254 38.4791 47.1415 38.5272C47.0451 38.5593 46.9568 38.6556 46.8765 38.816C46.7158 39.1209 46.5391 39.4498 46.3464 39.8028C46.1536 40.1558 45.9528 40.4927 45.744 40.8136L46.0331 40.7895C46.4186 40.7574 46.7801 40.7173 47.1174 40.6692C47.4708 40.621 47.8724 40.605 48.3222 40.621C48.4025 40.621 48.4828 40.6371 48.5632 40.6692C48.6595 40.6852 48.7077 40.7173 48.7077 40.7655C48.7077 40.8296 48.4989 40.9179 48.0812 41.0302C47.9206 41.0944 47.5672 41.1666 47.021 41.2468C46.4909 41.311 45.9448 41.3752 45.3825 41.4393C45.2219 41.7442 45.0773 42.0009 44.9488 42.2095C44.8203 42.402 44.7319 42.5464 44.6838 42.6427C44.3303 43.3808 44.0091 44.0546 43.7199 44.6643C43.4468 45.258 43.2942 45.7474 43.2621 46.1324C43.246 46.1966 43.238 46.2608 43.238 46.325C43.238 46.3731 43.238 46.4293 43.238 46.4935C43.238 47.1352 43.4468 47.4561 43.8645 47.4561C44.1215 47.4561 44.4508 47.3198 44.8524 47.047C45.254 46.7582 45.6636 46.4132 46.0813 46.0121C46.499 45.5949 46.8765 45.2018 47.2138 44.8328C47.5672 44.4477 47.8082 44.1589 47.9367 43.9664C47.9849 43.9183 48.0331 43.8942 48.0812 43.8942C48.1455 43.8942 48.1937 43.9183 48.2258 43.9664C48.274 44.0145 48.282 44.0787 48.2499 44.1589C48.1053 44.4317 47.8564 44.7767 47.5029 45.1938C47.1656 45.5949 46.7801 46.0041 46.3464 46.4212C45.9287 46.8224 45.5191 47.1673 45.1175 47.4561C44.9086 47.6166 44.6436 47.753 44.3223 47.8653C44.0171 47.9936 43.7039 48.0578 43.3826 48.0578Z" fill="#F3F3F3"/>
<path d="M51.4447 39.4418C51.2358 39.4418 51.019 39.4257 50.7941 39.3936C50.5692 39.3455 50.4567 39.1931 50.4567 38.9363C50.4567 38.8882 50.5612 38.7759 50.77 38.5994C50.9949 38.4229 51.2198 38.2464 51.4447 38.0699C51.6856 37.8774 51.8302 37.7651 51.8784 37.733C52.1515 37.5084 52.3202 37.396 52.3844 37.396C52.4647 37.396 52.4647 37.5003 52.3844 37.7089C52.3041 37.9175 52.2639 38.102 52.2639 38.2625C52.2639 38.3427 52.2157 38.4791 52.1194 38.6716C52.023 38.8641 51.9105 39.0406 51.782 39.2011C51.6535 39.3615 51.5411 39.4418 51.4447 39.4418ZM48.8182 48.0578C48.5291 48.0578 48.264 47.9936 48.0231 47.8653C47.7982 47.7369 47.6295 47.4963 47.5171 47.1433C47.501 47.0951 47.4849 47.047 47.4689 46.9989C47.4689 46.9507 47.4689 46.8946 47.4689 46.8304C47.4689 46.5095 47.5412 46.1084 47.6857 45.627C47.8303 45.1457 48.007 44.6804 48.2158 44.2311C48.1195 44.3595 48.007 44.5199 47.8785 44.7125C47.75 44.889 47.5653 45.1216 47.3243 45.4104C47.26 45.4746 47.1878 45.5067 47.1074 45.5067C46.995 45.5067 46.9388 45.4425 46.9388 45.3142C46.9388 45.2179 46.9709 45.1377 47.0352 45.0735C47.4528 44.544 47.8223 44.0707 48.1436 43.6535C48.4809 43.2364 48.7299 42.8834 48.8905 42.5946C48.8905 42.5785 48.8825 42.5705 48.8664 42.5705C48.8664 42.5544 48.8664 42.5384 48.8664 42.5224C48.8664 42.4742 48.8905 42.402 48.9387 42.3058C49.0672 41.9207 49.1957 41.5998 49.3242 41.3431C49.4688 41.0703 49.6214 40.9179 49.7821 40.8858C49.8142 40.8858 49.8463 40.8858 49.8784 40.8858C49.9106 40.8697 49.9427 40.8617 49.9748 40.8617C50.1515 40.8617 50.3122 40.9018 50.4567 40.9821C50.6013 41.0623 50.6736 41.1826 50.6736 41.3431C50.6736 41.4875 50.6174 41.664 50.5049 41.8725C50.4086 42.0811 50.28 42.3378 50.1194 42.6427C49.766 43.3808 49.4447 44.0546 49.1556 44.6643C48.8825 45.258 48.7299 45.7474 48.6978 46.1324C48.6817 46.1966 48.6737 46.2608 48.6737 46.325C48.6737 46.3731 48.6737 46.4293 48.6737 46.4935C48.6737 47.1352 48.8825 47.4561 49.3002 47.4561C49.5572 47.4561 49.8865 47.3198 50.2881 47.047C50.6897 46.7582 51.0993 46.4132 51.517 46.0121C51.9346 45.5949 52.3121 45.2018 52.6495 44.8328C53.0029 44.4477 53.2438 44.1589 53.3723 43.9664C53.4205 43.9183 53.4687 43.8942 53.5169 43.8942C53.5812 43.8942 53.6294 43.9183 53.6615 43.9664C53.7097 44.0145 53.7177 44.0787 53.6856 44.1589C53.541 44.4317 53.292 44.7767 52.9386 45.1938C52.6013 45.5949 52.2157 46.0041 51.782 46.4212C51.3644 46.8224 50.9547 47.1673 50.5531 47.4561C50.3443 47.6166 50.0793 47.753 49.758 47.8653C49.4528 47.9936 49.1395 48.0578 48.8182 48.0578Z" fill="#F3F3F3"/>
<path d="M50.3986 56C50.254 56 50.1817 55.9519 50.1817 55.8556C50.1817 55.7754 50.1978 55.7032 50.2299 55.639C50.2942 55.5267 50.4387 55.1978 50.6636 54.6522C50.8885 54.1228 51.1696 53.4409 51.507 52.6065C51.8283 51.7882 52.1817 50.8978 52.5672 49.9351C52.9527 48.9884 53.3302 48.0498 53.6997 47.1192C54.0692 46.1726 54.4065 45.3142 54.7117 44.544C54.4226 44.5921 54.1655 44.6242 53.9407 44.6403C53.7158 44.6563 53.5551 44.6643 53.4587 44.6643C53.3142 44.6643 53.1696 44.6162 53.025 44.5199C52.8804 44.4237 52.8082 44.2953 52.8082 44.1349C52.8082 43.9905 52.9045 43.8701 53.0973 43.7739C53.2901 43.6615 53.4989 43.5813 53.7238 43.5332C53.9647 43.469 54.1414 43.4369 54.2539 43.4369C54.4306 43.4369 54.5591 43.5011 54.6394 43.6295C54.7358 43.7578 54.8402 43.822 54.9527 43.822H55.0009C55.1776 43.3727 55.3221 43.0037 55.4346 42.7149C55.5631 42.41 55.6434 42.1934 55.6755 42.0651C55.8041 41.7281 55.9808 41.2949 56.2057 40.7655C56.4305 40.236 56.6795 39.6744 56.9526 39.0807C57.2257 38.471 57.5068 37.8854 57.796 37.3238C58.1012 36.7462 58.3823 36.2488 58.6393 35.8317C58.8803 35.4626 59.1614 35.0936 59.4827 34.7246C59.82 34.3395 60.1814 34.0266 60.567 33.786C60.9686 33.5292 61.3943 33.4009 61.8441 33.4009C62.0368 33.4009 62.2216 33.425 62.3983 33.4731C62.575 33.5052 62.7436 33.5613 62.9043 33.6416C63.3862 33.9143 63.6271 34.3074 63.6271 34.8209C63.6271 35.0294 63.587 35.2621 63.5067 35.5188C63.4424 35.7595 63.346 36.0162 63.2175 36.2889C63.0087 36.7542 62.6633 37.3078 62.1814 37.9496C61.7155 38.5914 61.1694 39.2572 60.5429 39.9472C59.9325 40.6371 59.2979 41.303 58.6393 41.9447C57.9807 42.5865 57.3462 43.1481 56.7358 43.6295C57.1534 43.5974 57.5791 43.5653 58.0128 43.5332C58.4466 43.4851 58.8803 43.461 59.314 43.461C59.4264 43.461 59.5389 43.477 59.6513 43.5091C59.7799 43.5252 59.8441 43.5573 59.8441 43.6054C59.8441 43.6375 59.8039 43.6776 59.7236 43.7257C59.6594 43.7578 59.5228 43.8059 59.314 43.8701C59.1855 43.9022 58.9285 43.9584 58.5429 44.0386C58.1574 44.1028 57.7076 44.167 57.1936 44.2311C56.6956 44.2953 56.1976 44.3595 55.6996 44.4237C55.4747 45.0013 55.2097 45.6912 54.9045 46.4935C54.6153 47.2796 54.3182 48.0739 54.0129 48.8761C53.7238 49.6944 53.4587 50.4244 53.2178 51.0662C53.025 51.6278 52.9045 52.0369 52.8563 52.2937C52.8082 52.5504 52.7841 52.7429 52.7841 52.8713V53.0397C52.7841 53.1039 52.776 53.1681 52.76 53.2323C52.76 53.2965 52.7359 53.3847 52.6877 53.497C52.3985 54.2351 52.2058 54.7325 52.1094 54.9892C52.013 55.2619 51.8765 55.4545 51.6997 55.5668C51.5712 55.631 51.3704 55.7192 51.0974 55.8315C50.8243 55.9438 50.5913 56 50.3986 56ZM56.037 43.6776C56.6313 43.2283 57.2418 42.6828 57.8683 42.041C58.4947 41.3992 59.1052 40.7173 59.6995 39.9953C60.2939 39.2572 60.832 38.5352 61.3139 37.8293C61.8119 37.1233 62.2216 36.4975 62.5428 35.952C62.8159 35.5028 62.9525 35.0776 62.9525 34.6764C62.9525 34.2432 62.7999 34.0266 62.4946 34.0266C62.2376 34.0266 61.9324 34.171 61.579 34.4598C61.2738 34.6845 60.9043 35.0615 60.4706 35.591C60.0529 36.1044 59.6353 36.682 59.2176 37.3238C58.816 37.9496 58.4626 38.5432 58.1574 39.1048C57.804 39.7787 57.4827 40.4285 57.1936 41.0543C56.9044 41.664 56.6715 42.1774 56.4948 42.5946C56.3181 42.9957 56.2137 43.2364 56.1816 43.3166C56.1334 43.4128 56.0852 43.5332 56.037 43.6776Z" fill="#F3F3F3"/>
<path d="M66.3778 48.0578C66.0887 48.0578 65.8316 47.9936 65.6068 47.8653C65.3819 47.7369 65.2132 47.4963 65.1007 47.1433C65.0847 47.063 65.0606 46.9748 65.0285 46.8785C65.0124 46.7662 65.0044 46.6539 65.0044 46.5416C65.0044 46.1565 65.0526 45.7233 65.1489 45.242C65.2614 44.7606 65.3819 44.3595 65.5104 44.0386C65.4461 44.0867 65.3337 44.2472 65.173 44.5199C65.0124 44.7927 64.8116 45.1136 64.5706 45.4826C64.3297 45.8356 64.0566 46.1966 63.7514 46.5657C63.4622 46.9186 63.141 47.2155 62.7876 47.4561C62.4502 47.6808 62.0888 47.7931 61.7032 47.7931C61.4462 47.7931 61.133 47.7209 60.7635 47.5765C60.4101 47.4321 60.1531 47.2315 59.9924 46.9748C59.8318 46.7181 59.7515 46.3972 59.7515 46.0121C59.7515 45.5468 59.8559 45.0414 60.0647 44.4959C60.2736 43.9343 60.5386 43.4128 60.8599 42.9315C60.9723 42.7711 61.1009 42.5785 61.2454 42.3539C61.39 42.1293 61.5346 41.9367 61.6791 41.7763C61.8237 41.5998 61.9281 41.5035 61.9924 41.4875C62.1852 41.4233 62.4101 41.3912 62.6671 41.3912C62.9402 41.3912 63.141 41.4233 63.2695 41.4875C63.3819 41.5356 63.4381 41.5918 63.4381 41.6559C63.4381 41.7362 63.3739 41.8405 63.2454 41.9688C63.0687 42.1293 62.8277 42.3699 62.5225 42.6908C62.2173 43.0117 61.9121 43.3968 61.6069 43.8461C61.3177 44.2953 61.0768 44.7927 60.884 45.3382C60.7234 45.7714 60.643 46.1485 60.643 46.4694C60.643 47.031 60.8679 47.3117 61.3177 47.3117C61.7032 47.3117 62.1129 47.1513 62.5466 46.8304C62.9803 46.5095 63.398 46.1164 63.7996 45.6511C64.2172 45.1858 64.5867 44.7285 64.908 44.2793C65.2453 43.814 65.5023 43.4449 65.679 43.1722C65.8397 42.9475 66.0164 42.6587 66.2091 42.3058C66.418 41.9528 66.6188 41.6078 66.8115 41.2709C67.0043 40.9339 67.1569 40.6852 67.2694 40.5248C67.3818 40.5248 67.5505 40.5489 67.7754 40.597C68.0163 40.6291 68.2171 40.6932 68.3778 40.7895C68.5545 40.8858 68.6027 41.0061 68.5223 41.1505C68.4259 41.311 68.2734 41.5597 68.0645 41.8966C67.8718 42.2336 67.671 42.5785 67.4621 42.9315C67.2694 43.2684 67.1168 43.5412 67.0043 43.7498C66.6188 44.4879 66.3698 45.2821 66.2573 46.1324C66.2413 46.1966 66.2332 46.2608 66.2332 46.325C66.2332 46.3731 66.2332 46.4293 66.2332 46.4935C66.2332 47.1352 66.4501 47.4561 66.8838 47.4561C67.1248 47.4561 67.4461 47.3117 67.8477 47.0229C68.2493 46.7341 68.6589 46.3892 69.0765 45.988C69.5103 45.5869 69.8958 45.2018 70.2331 44.8328C70.5865 44.4477 70.8275 44.1589 70.956 43.9664C70.9881 43.9183 71.0363 43.8942 71.1006 43.8942C71.1648 43.8942 71.213 43.9183 71.2452 43.9664C71.2934 44.0145 71.2934 44.0787 71.2452 44.1589C71.1006 44.4317 70.8516 44.7767 70.4982 45.1938C70.1608 45.5949 69.7833 46.0041 69.3657 46.4212C68.948 46.8224 68.5384 47.1673 68.1368 47.4561C67.928 47.6166 67.6629 47.753 67.3417 47.8653C67.0204 47.9936 66.6991 48.0578 66.3778 48.0578Z" fill="#F3F3F3"/>
<path d="M72.193 48.0578C71.5183 48.0578 71.0444 47.8894 70.7713 47.5524C70.5143 47.2155 70.3858 46.7983 70.3858 46.3009C70.3858 45.8356 70.4902 45.25 70.6991 44.544C70.9239 43.838 71.2131 43.0759 71.5665 42.2576C71.9199 41.4393 72.2974 40.6291 72.699 39.8268C73.1167 39.0085 73.5263 38.2625 73.9279 37.5886C74.3455 36.8987 74.707 36.3451 75.0122 35.9279C75.3174 35.5268 75.6467 35.1257 76.0001 34.7246C76.3535 34.3235 76.7471 33.9865 77.1808 33.7138C77.6145 33.441 78.1045 33.3046 78.6506 33.3046C79.0201 33.3046 79.3334 33.4089 79.5904 33.6175C79.8635 33.81 80 34.1069 80 34.508C80 34.6684 79.9679 34.8529 79.9036 35.0615C79.8554 35.2701 79.7671 35.4867 79.6386 35.7113C78.6587 37.4121 77.486 38.9845 76.1206 40.4285C74.7712 41.8725 73.3415 43.2123 71.8315 44.4477C71.7673 44.6884 71.703 44.905 71.6388 45.0976C71.5906 45.2901 71.5504 45.4425 71.5183 45.5548C71.5022 45.6351 71.4942 45.7233 71.4942 45.8196C71.4942 45.8998 71.4942 45.98 71.4942 46.0602C71.4942 46.4453 71.5585 46.7823 71.687 47.0711C71.8155 47.3599 72.0323 47.5043 72.3376 47.5043C72.6267 47.5043 72.9801 47.3679 73.3978 47.0951C73.8315 46.8063 74.2652 46.4614 74.6989 46.0602C75.1327 45.6431 75.5262 45.242 75.8796 44.8569C76.233 44.4718 76.482 44.175 76.6266 43.9664C76.6748 43.9183 76.723 43.8942 76.7712 43.8942C76.8354 43.8942 76.8836 43.9263 76.9157 43.9905C76.9639 44.0546 76.9639 44.1349 76.9157 44.2311C76.7551 44.5039 76.4981 44.8408 76.1447 45.242C75.7913 45.6431 75.3977 46.0522 74.964 46.4694C74.5303 46.8705 74.1126 47.2235 73.711 47.5283C73.213 47.8813 72.707 48.0578 72.193 48.0578ZM72.1689 43.485C72.7793 43.0679 73.4138 42.5304 74.0724 41.8725C74.7311 41.1987 75.3736 40.4686 76.0001 39.6824C76.6427 38.8962 77.221 38.1181 77.735 37.3479C78.2651 36.5778 78.6908 35.8798 79.0121 35.2541C79.1085 35.0776 79.1727 34.9251 79.2048 34.7968C79.253 34.6524 79.2771 34.524 79.2771 34.4117C79.2771 34.1069 79.1486 33.9544 78.8916 33.9544C78.6667 33.9544 78.3856 34.0748 78.0482 34.3154C77.1808 34.9893 76.3776 35.8557 75.6387 36.9147C74.8997 37.9576 74.2411 39.0567 73.6628 40.2119C73.0845 41.3671 72.5865 42.4582 72.1689 43.485Z" fill="#F3F3F3"/>
</svg>
