<svg width="42" height="42" viewBox="0 0 42 42" fill="none" xmlns="http://www.w3.org/2000/svg">
<rect x="1" y="1" width="40" height="40" rx="8" stroke="#8C8C8C"/>
<path d="M24.7333 29H17.2667C16.1351 29 15.0498 28.5505 14.2497 27.7503C13.4495 26.9502 13 25.8649 13 24.7333V17.2667C13 16.1351 13.4495 15.0498 14.2497 14.2497C15.0498 13.4495 16.1351 13 17.2667 13H24.7333C25.8649 13 26.9502 13.4495 27.7503 14.2497C28.5505 15.0498 29 16.1351 29 17.2667V24.7333C29 25.8649 28.5505 26.9502 27.7503 27.7503C26.9502 28.5505 25.8649 29 24.7333 29Z" stroke="#777777" stroke-miterlimit="10"/>
<path d="M21.0001 24.7333C23.0619 24.7333 24.7334 23.0618 24.7334 20.9999C24.7334 18.9381 23.0619 17.2666 21.0001 17.2666C18.9382 17.2666 17.2667 18.9381 17.2667 20.9999C17.2667 23.0618 18.9382 24.7333 21.0001 24.7333Z" stroke="#777777" stroke-miterlimit="10"/>
<path d="M25.8001 16.7334C26.0946 16.7334 26.3334 16.4946 26.3334 16.2001C26.3334 15.9055 26.0946 15.6667 25.8001 15.6667C25.5055 15.6667 25.2667 15.9055 25.2667 16.2001C25.2667 16.4946 25.5055 16.7334 25.8001 16.7334Z" stroke="#777777" stroke-miterlimit="10"/>
</svg>
