<svg width="42" height="42" viewBox="0 0 42 42" fill="none" xmlns="http://www.w3.org/2000/svg">
<rect x="1" y="1" width="40" height="40" rx="8" stroke="#8C8C8C"/>
<path d="M29 26.064C29 26.352 28.9359 26.648 28.7997 26.936C28.6635 27.224 28.4872 27.496 28.2549 27.752C27.8623 28.184 27.4296 28.496 26.9409 28.696C26.4602 28.896 25.9394 29 25.3786 29C24.5613 29 23.688 28.808 22.7667 28.416C21.8453 28.024 20.9239 27.496 20.0105 26.832C19.0796 26.1521 18.2012 25.4033 17.3826 24.592C16.5724 23.7776 15.8251 22.9031 15.1472 21.976C14.4902 21.064 13.9614 20.152 13.5769 19.248C13.1923 18.336 13 17.464 13 16.632C13 16.088 13.0961 15.568 13.2884 15.088C13.4807 14.6 13.7852 14.152 14.2098 13.752C14.7226 13.248 15.2834 13 15.8763 13C16.1007 13 16.325 13.048 16.5253 13.144C16.7336 13.24 16.9179 13.384 17.0621 13.592L18.9209 16.208C19.0651 16.408 19.1693 16.592 19.2414 16.768C19.3135 16.936 19.3535 17.104 19.3535 17.256C19.3535 17.448 19.2974 17.64 19.1853 17.824C19.0811 18.008 18.9289 18.2 18.7366 18.392L18.1277 19.024C18.0396 19.112 17.9995 19.216 17.9995 19.344C17.9995 19.408 18.0075 19.464 18.0235 19.528C18.0476 19.592 18.0716 19.64 18.0876 19.688C18.2318 19.952 18.4802 20.296 18.8327 20.712C19.1933 21.128 19.5779 21.552 19.9945 21.976C20.4271 22.4 20.8438 22.792 21.2684 23.152C21.685 23.504 22.0295 23.744 22.302 23.888C22.342 23.904 22.3901 23.928 22.4462 23.952C22.5103 23.976 22.5744 23.984 22.6465 23.984C22.7827 23.984 22.8868 23.936 22.975 23.848L23.5839 23.248C23.7842 23.048 23.9765 22.896 24.1607 22.8C24.345 22.688 24.5293 22.632 24.7296 22.632C24.8818 22.632 25.0421 22.664 25.2183 22.736C25.3946 22.808 25.5789 22.912 25.7792 23.048L28.4311 24.928C28.6395 25.072 28.7837 25.24 28.8718 25.44C28.9519 25.64 29 25.84 29 26.064Z" stroke="#777777" stroke-miterlimit="10"/>
</svg>
