<svg width="42" height="42" viewBox="0 0 42 42" fill="none" xmlns="http://www.w3.org/2000/svg">
<rect x="1" y="1" width="40" height="40" rx="8" stroke="#8C8C8C"/>
<path d="M28.5776 13.2994C28.2429 12.9941 27.7828 12.9156 27.3797 13.0948L13.7286 19.1566C13.1281 19.4284 12.8416 20.1842 13.0888 20.8447C13.2166 21.1862 13.4711 21.4513 13.7881 21.5732L16.733 22.6993L18.329 28.5032C18.3322 28.5151 18.3421 28.5223 18.3462 28.5336C18.3627 28.5799 18.3869 28.6225 18.4173 28.6592C18.4287 28.674 18.4411 28.6879 18.4543 28.7007C18.494 28.737 18.5402 28.7638 18.5899 28.7795C18.5974 28.782 18.6025 28.7894 18.6102 28.7913L18.6147 28.7911L18.6169 28.7921C18.6424 28.7984 18.6683 28.8014 18.6943 28.8011C18.7283 28.7998 18.762 28.7934 18.7944 28.782C18.8007 28.7801 18.807 28.7806 18.8131 28.7783C18.8684 28.7569 18.9184 28.7217 18.9591 28.6753C18.9638 28.6701 18.971 28.6692 18.9756 28.6636L21.2717 25.8771L24.6214 28.7299C24.825 28.905 25.0759 29.0001 25.3342 29C25.893 28.9999 26.3753 28.5694 26.4905 27.968L28.9764 14.545C29.0625 14.0807 28.9092 13.6019 28.5776 13.2994ZM19.1624 23.8L18.6235 26.6801L17.4998 22.5924L23.0731 19.4004L19.2658 23.5881C19.2131 23.646 19.1772 23.7197 19.1624 23.8ZM25.7442 27.7994C25.715 27.9537 25.615 28.0802 25.4801 28.1333C25.3483 28.1891 25.1995 28.1642 25.0887 28.0679L21.4592 24.9769C21.3021 24.8431 21.0778 24.8648 20.9444 25.0268L19.3477 26.9644L19.8856 24.0922L25.3625 18.0673C25.5114 17.9039 25.5116 17.6387 25.3631 17.475C25.2455 17.3455 25.0652 17.3149 24.9176 17.3995L17.0217 21.922L14.0373 20.781C13.8747 20.7222 13.764 20.5561 13.762 20.3678C13.7542 20.1781 13.8563 20.0037 14.0165 19.9332L27.6654 13.8723C27.808 13.8058 27.9725 13.8336 28.0902 13.9443C28.2074 14.0483 28.2613 14.2162 28.2294 14.3781L25.7442 27.7994Z" fill="#777777"/>
</svg>
