<svg width="192" height="40" viewBox="0 0 192 40" fill="none" xmlns="http://www.w3.org/2000/svg">
<g clip-path="url(#clip0_2_7)">
<path fill-rule="evenodd" clip-rule="evenodd" d="M59.4585 29.6489C57.5757 29.6489 55.9285 29.3372 54.5623 28.7227C53.1946 28.1083 52.0529 27.2852 51.1693 26.2761C50.2861 25.2695 49.6238 24.0984 49.201 22.7957C48.7805 21.5013 48.5672 20.1545 48.5672 18.7924C48.5672 17.2139 48.8336 15.764 49.3589 14.4831C49.8854 13.2007 50.6392 12.0885 51.5984 11.1772C52.5556 10.2679 53.7211 9.55901 55.0615 9.07077C56.3964 8.58458 57.8944 8.33798 59.5139 8.33798C62.8935 8.33798 64.7672 9.28066 64.7672 9.28066L63.7463 11.3908L63.4676 11.204C63.4201 11.1714 63.3725 11.1392 63.3219 11.1083C62.8353 10.8143 62.27 10.5714 61.641 10.3866C61.0119 10.2027 60.3053 10.1091 59.5413 10.1091C58.4217 10.1091 57.3723 10.3244 56.4233 10.7491C55.4748 11.1743 54.6427 11.7734 53.9515 12.5297C53.2603 13.2881 52.7163 14.2023 52.3339 15.2473C51.9507 16.2955 51.7567 17.4687 51.7567 18.7347C51.7567 19.9277 51.9424 21.0885 52.3086 22.1862C52.6724 23.2786 53.2179 24.2555 53.9301 25.0893C54.6387 25.9203 55.5393 26.5957 56.607 27.0963C57.6735 27.5957 58.9209 27.8493 60.3136 27.8493C62.6754 27.8493 64.7692 27.0308 66.5372 25.4163L66.751 25.2217L67.8452 26.8716C67.8452 26.8716 66.0293 28.4106 62.673 29.2972C61.7328 29.5458 60.6477 29.6489 59.4585 29.6489Z" fill="#777777"/>
<path fill-rule="evenodd" clip-rule="evenodd" d="M77.1856 9.94208C76.1959 9.94208 75.2268 10.1606 74.3056 10.5916C73.3369 11.0452 72.5198 11.6782 71.8753 12.4732C71.2292 13.2707 70.7558 14.1928 70.4676 15.2126C70.1782 16.2365 70.08 17.3623 70.1754 18.5602C70.2716 19.7606 70.5923 20.9986 71.1279 22.2398C71.6639 23.4827 72.3401 24.5549 73.137 25.4262C73.9339 26.2963 74.8076 26.9676 75.7339 27.4217C76.6583 27.8749 77.6345 28.1182 78.6349 28.1446C78.6907 28.1458 78.7465 28.1466 78.8024 28.1466C79.7433 28.1466 80.6843 27.9293 81.5988 27.5013C82.5517 27.0555 83.3739 26.4196 84.0434 25.6114C84.7144 24.8027 85.2175 23.8662 85.5398 22.827C85.8612 21.7878 85.9879 20.6476 85.917 19.4394C85.845 18.2287 85.5374 16.9862 85.0026 15.7466C84.4681 14.5062 83.7805 13.4419 82.9595 12.5825C82.1396 11.7248 81.2366 11.067 80.2774 10.6266C79.3182 10.1883 78.3115 9.95775 77.2846 9.9429L77.1856 9.94208ZM77.8863 29.6489C76.0364 29.6489 74.4224 29.2967 73.0879 28.6019C71.7589 27.9099 70.6473 27.0241 69.7839 25.9681C68.9217 24.914 68.28 23.7499 67.877 22.5087C67.4748 21.2728 67.2705 20.0897 67.2705 18.9932C67.2705 17.8782 67.4747 16.6815 67.8766 15.4357C68.2804 14.1845 68.9221 13.02 69.7847 11.9751C70.6481 10.9297 71.7597 10.053 73.0891 9.3697C74.4228 8.68517 76.0372 8.33795 77.8863 8.33795C79.7536 8.33795 81.3997 8.6897 82.7777 9.38331C84.153 10.0753 85.3062 10.9615 86.2056 12.0151C87.1039 13.0678 87.7785 14.2311 88.2111 15.4732C88.6415 16.7136 88.86 17.8975 88.86 18.9932C88.86 19.7194 88.7598 20.4951 88.5627 21.298C88.3671 22.0938 88.0734 22.8992 87.689 23.6914C87.3038 24.4835 86.805 25.2456 86.2068 25.9561C85.6059 26.6703 84.8878 27.3095 84.0726 27.8559C83.2567 28.4027 82.3264 28.8427 81.3079 29.1635C80.2869 29.4856 79.1357 29.6489 77.8863 29.6489Z" fill="#777777"/>
<path fill-rule="evenodd" clip-rule="evenodd" d="M91.7514 29.3042V8.68271H94.7478V27.2167H102.992V29.3042H91.7514Z" fill="#777777"/>
<path fill-rule="evenodd" clip-rule="evenodd" d="M105.881 29.3042V8.68271H108.878V27.2167H117.122V29.3042H105.881Z" fill="#777777"/>
<!-- <mask id="mask0_2_7" style="mask-type:luminance" maskUnits="userSpaceOnUse" x="0" y="0" width="192" height="40">
<path d="M0 39.9835H191.756V0H0V39.9835Z" fill="#1D1D1B"/>
</mask> -->
<g mask="url(#mask0_2_7)">
<path fill-rule="evenodd" clip-rule="evenodd" d="M119.949 29.3044H122.946V8.68292H119.949V29.3044Z" fill="#777777"/>
</g>
<!-- <mask id="mask1_2_7" style="mask-type:luminance" maskUnits="userSpaceOnUse" x="0" y="0" width="192" height="40">
<path d="M0 39.9835H191.756V0H0V39.9835Z" fill="#1D1D1B"/>
</mask> -->
<g mask="url(#mask1_2_7)">
<path fill-rule="evenodd" clip-rule="evenodd" d="M134.27 29.6489C133.203 29.6489 132.204 29.5153 131.302 29.2514C130.395 28.9866 129.594 28.6073 128.922 28.124C128.241 27.6357 127.696 27.0337 127.302 26.3343C126.906 25.6312 126.686 24.8378 126.647 23.9763L126.636 23.7116H128.996L129.009 23.9504C129.025 24.2543 129.097 24.637 129.22 25.0873C129.338 25.5186 129.572 25.9458 129.915 26.3565C130.256 26.766 130.766 27.1252 131.428 27.4246C132.093 27.7256 132.998 27.8778 134.118 27.8778C135.517 27.8778 136.648 27.6011 137.478 27.0555C138.283 26.5252 138.675 25.7021 138.675 24.5392C138.675 23.6163 138.419 22.8728 137.916 22.3306C137.387 21.7615 136.702 21.2885 135.903 20.8749C134.621 20.2106 131.703 19.051 130.855 18.5854C129.994 18.112 129.342 17.6015 128.7 16.799C128.113 16.0666 127.816 15.0934 127.816 13.9075C127.816 13.0073 127.997 12.1937 128.355 11.4906C128.71 10.7899 129.199 10.1998 129.808 9.73716C130.409 9.28066 131.112 8.92973 131.9 8.69303C132.682 8.45757 133.519 8.33798 134.385 8.33798C137.738 8.33798 139.2 9.29592 139.2 9.29592L138.265 11.3817L138.03 11.2217C137.816 11.0761 137.672 10.9871 137.461 10.8691C136.542 10.3578 135.581 10.1091 134.521 10.1091C133.831 10.1091 133.214 10.197 132.688 10.3701C132.165 10.5429 131.72 10.7714 131.365 11.0493C131.019 11.3215 130.755 11.6444 130.58 12.0093C130.404 12.3739 130.315 12.7706 130.315 13.1887C130.315 13.9409 130.567 14.526 131.085 14.9776C131.637 15.4584 132.337 15.8901 133.168 16.2609C134.011 16.6378 137.33 18.0275 138.382 18.6444C139.265 19.1623 140.008 19.8254 140.596 20.6035C141.199 21.4027 141.505 22.4365 141.505 23.6774C141.505 24.5739 141.33 25.404 140.984 26.1442C140.637 26.8852 140.139 27.5244 139.505 28.0427C138.877 28.5578 138.11 28.9594 137.228 29.2357C136.352 29.5099 135.357 29.6489 134.27 29.6489Z" fill="#777777"/>
</g>
<!-- <mask id="mask2_2_7" style="mask-type:luminance" maskUnits="userSpaceOnUse" x="0" y="0" width="192" height="40">
<path d="M0 39.9835H191.756V0H0V39.9835Z" fill="#1D1D1B"/>
</mask> -->
<g mask="url(#mask2_2_7)">
<path fill-rule="evenodd" clip-rule="evenodd" d="M147.551 29.3042V10.7697H141.443V8.68271H156.655V10.7697H150.547V29.3042H147.551Z" fill="#777777"/>
</g>
<!-- <mask id="mask3_2_7" style="mask-type:luminance" maskUnits="userSpaceOnUse" x="0" y="0" width="192" height="40">
<path d="M0 39.9835H191.756V0H0V39.9835Z" fill="#1D1D1B"/>
</mask> -->
<g mask="url(#mask3_2_7)">
<path fill-rule="evenodd" clip-rule="evenodd" d="M167.085 21.5851L163.087 12.6465L159.421 21.5851H167.085ZM170.539 29.3043L167.89 23.3843H158.689L156.261 29.3043H154.465L162.836 8.68283H164.532L173.75 29.3043H170.539Z" fill="#777777"/>
</g>
<!-- <mask id="mask4_2_7" style="mask-type:luminance" maskUnits="userSpaceOnUse" x="0" y="0" width="192" height="40">
<path d="M0 39.9835H191.756V0H0V39.9835Z" fill="#1D1D1B"/>
</mask> -->
<g mask="url(#mask4_2_7)">
<path fill-rule="evenodd" clip-rule="evenodd" d="M181.207 18.6252C181.908 18.6252 182.53 18.4978 183.057 18.2462C183.589 17.993 184.043 17.659 184.408 17.2545C184.771 16.8495 185.048 16.3943 185.23 15.9002C185.412 15.4042 185.504 14.9081 185.504 14.4244C185.504 13.8491 185.404 13.3118 185.206 12.8285C185.008 12.3485 184.717 11.9295 184.341 11.5827C183.959 11.2318 183.496 10.9534 182.965 10.7543C182.432 10.5547 181.821 10.4536 181.151 10.4536H178.597V18.6252H181.207ZM189.748 29.6487C189.169 29.6487 188.663 29.5658 188.245 29.4033C187.829 29.2404 187.451 29.019 187.123 28.7452C186.798 28.4739 186.495 28.1444 186.221 27.7666C185.954 27.3984 185.68 26.9873 185.405 26.5444L183.221 23.1873C182.887 22.6487 182.602 22.2004 182.363 21.838C182.137 21.4957 181.893 21.2141 181.637 21.0021C181.388 20.7951 181.106 20.6462 180.797 20.5596C180.477 20.4701 180.065 20.4248 179.573 20.4248H178.597V29.304H175.601V8.68292H182.106C183.365 8.68292 184.427 8.86849 185.262 9.23467C186.1 9.60169 186.774 10.0668 187.264 10.6169C187.754 11.1687 188.106 11.7757 188.31 12.4207C188.51 13.0565 188.612 13.6532 188.612 14.1947C188.612 14.7906 188.516 15.4108 188.327 16.038C188.136 16.6697 187.828 17.2627 187.41 17.8021C186.99 18.344 186.444 18.8013 185.786 19.1604C185.282 19.4355 184.698 19.6248 184.042 19.725C184.183 19.8215 184.31 19.9324 184.421 20.0557C184.588 20.24 184.795 20.5233 185.053 20.9204C185.306 21.313 185.645 21.8619 186.06 22.5518C186.473 23.2404 187.069 24.1807 187.831 25.3452C188.085 25.7452 188.329 26.1015 188.561 26.4087C188.788 26.7101 189.026 26.9675 189.267 27.1741C189.502 27.3753 189.757 27.5303 190.026 27.6359C190.29 27.7394 190.605 27.7918 190.961 27.7918C191.045 27.7918 191.128 27.7881 191.211 27.7786C191.298 27.7703 191.382 27.7571 191.465 27.7398L191.756 27.6784V29.198L191.634 29.2706C191.351 29.4388 191.062 29.5452 190.775 29.5885C190.505 29.6293 190.169 29.6487 189.748 29.6487Z" fill="#777777"/>
</g>
<!-- <mask id="mask5_2_7" style="mask-type:luminance" maskUnits="userSpaceOnUse" x="0" y="0" width="192" height="40">
<path d="M0 39.9835H191.756V0H0V39.9835Z" fill="#1D1D1B"/>
</mask> -->
<g mask="url(#mask5_2_7)">
<path fill-rule="evenodd" clip-rule="evenodd" d="M100.928 39.9835L98.524 35.2586V39.8771H97.828V33.3427H98.6633L101.314 38.5122L103.989 33.3427H104.832V39.8771H103.737V35.28L101.273 39.9835H100.928Z" fill="#777777"/>
</g>
<!-- <mask id="mask6_2_7" style="mask-type:luminance" maskUnits="userSpaceOnUse" x="0" y="0" width="192" height="40">
<path d="M0 39.9835H191.756V0H0V39.9835Z" fill="#1D1D1B"/>
</mask> -->
<g mask="url(#mask6_2_7)">
<path fill-rule="evenodd" clip-rule="evenodd" d="M108.762 39.8771H109.858V33.3427H108.762V39.8771Z" fill="#777777"/>
</g>
<!-- <mask id="mask7_2_7" style="mask-type:luminance" maskUnits="userSpaceOnUse" x="0" y="0" width="192" height="40">
<path d="M0 39.9835H191.756V0H0V39.9835Z" fill="#1D1D1B"/>
</mask> -->
<g mask="url(#mask7_2_7)">
<path fill-rule="evenodd" clip-rule="evenodd" d="M113.786 39.8772V33.3428H114.882V39.0554H117.951V39.8772H113.786Z" fill="#777777"/>
</g>
<!-- <mask id="mask8_2_7" style="mask-type:luminance" maskUnits="userSpaceOnUse" x="0" y="0" width="192" height="40">
<path d="M0 39.9835H191.756V0H0V39.9835Z" fill="#1D1D1B"/>
</mask> -->
<g mask="url(#mask8_2_7)">
<path fill-rule="evenodd" clip-rule="evenodd" d="M123.812 37.3192L122.718 34.873L121.715 37.3192H123.812ZM124.957 39.8771L124.141 38.0528H121.416L120.668 39.8771H119.928L122.58 33.3427H123.215L126.136 39.8771H124.957Z" fill="#777777"/>
</g>
<!-- <mask id="mask9_2_7" style="mask-type:luminance" maskUnits="userSpaceOnUse" x="0" y="0" width="192" height="40">
<path d="M0 39.9835H191.756V0H0V39.9835Z" fill="#1D1D1B"/>
</mask> -->
<g mask="url(#mask9_2_7)">
<path fill-rule="evenodd" clip-rule="evenodd" d="M133.427 39.9835L128.901 35.3361V39.8772H128.189V33.2363H128.415L128.504 33.285L132.984 37.8838V33.3427H133.696V39.9835H133.427Z" fill="#777777"/>
</g>
<!-- <mask id="mask10_2_7" style="mask-type:luminance" maskUnits="userSpaceOnUse" x="0" y="0" width="192" height="40">
<path d="M0 39.9835H191.756V0H0V39.9835Z" fill="#1D1D1B"/>
</mask> -->
<g mask="url(#mask10_2_7)">
<path fill-rule="evenodd" clip-rule="evenodd" d="M139.044 33.9611C138.73 33.9611 138.435 34.0258 138.168 34.1541C137.9 34.2827 137.665 34.4638 137.469 34.6935C137.27 34.9248 137.111 35.2069 136.998 35.5293C136.883 35.8547 136.825 36.2184 136.825 36.6101C136.825 37.0019 136.883 37.3652 136.997 37.6902C137.112 38.0139 137.27 38.2951 137.469 38.5264C137.665 38.7565 137.9 38.938 138.167 39.0658C138.435 39.1941 138.73 39.2592 139.044 39.2592C139.354 39.2592 139.651 39.1941 139.927 39.0654C140.204 38.9367 140.449 38.7545 140.657 38.5236C140.867 38.2926 141.034 38.0114 141.157 37.6873C141.279 37.3623 141.341 36.9998 141.341 36.6101C141.341 36.2205 141.279 35.858 141.157 35.533C141.034 35.2093 140.867 34.9281 140.658 34.6967C140.449 34.4662 140.203 34.2836 139.927 34.1545C139.651 34.0258 139.354 33.9611 139.044 33.9611ZM139.028 39.9833C138.443 39.9833 137.933 39.872 137.51 39.6518C137.09 39.4324 136.738 39.1516 136.465 38.8172C136.193 38.4844 135.989 38.1161 135.861 37.7223C135.734 37.3326 135.67 36.9582 135.67 36.6101C135.67 36.2563 135.734 35.8778 135.861 35.4852C135.989 35.0881 136.193 34.719 136.466 34.3891C136.739 34.0567 137.091 33.7792 137.512 33.564C137.934 33.3471 138.444 33.2365 139.028 33.2365C139.615 33.2365 140.135 33.3483 140.572 33.5677C141.006 33.7858 141.37 34.065 141.656 34.4003C141.941 34.7334 142.154 35.1021 142.29 35.4947C142.426 35.8856 142.495 36.2609 142.495 36.6101C142.495 36.8411 142.464 37.0877 142.401 37.3425C142.338 37.5965 142.246 37.851 142.125 38.0984C142.003 38.3495 141.845 38.5908 141.657 38.8151C141.466 39.0411 141.239 39.2436 140.981 39.4167C140.723 39.5895 140.43 39.7285 140.107 39.8299C139.784 39.9318 139.421 39.9833 139.028 39.9833Z" fill="#777777"/>
</g>
<!-- <mask id="mask11_2_7" style="mask-type:luminance" maskUnits="userSpaceOnUse" x="0" y="0" width="192" height="40">
<path d="M0 39.9835H191.756V0H0V39.9835Z" fill="#1D1D1B"/>
</mask> -->
<g mask="url(#mask11_2_7)">
<path fill-rule="evenodd" clip-rule="evenodd" d="M30.8375 20.8065L29.2481 22.4617C30.6467 23.9104 31.9852 25.2972 33.1186 26.4712C32.3252 28.4778 31.2615 30.2353 29.9464 31.6918C28.566 33.2205 26.9366 34.4296 25.1029 35.2844C23.2664 36.1413 21.2894 36.5751 19.2253 36.5751C17.1267 36.5751 15.1573 36.1405 13.3711 35.2836C11.5868 34.4263 10.0168 33.2164 8.70566 31.6865C7.3953 30.1582 6.35138 28.3067 5.60278 26.1834C4.85378 24.0626 4.47453 21.7009 4.47453 19.1657C4.47453 16.6304 4.85378 14.2692 5.60278 12.1492C6.35138 10.0254 7.3953 8.1739 8.70566 6.64565C10.0176 5.11493 11.5872 3.90503 13.3715 3.04854C15.1588 2.19122 17.1279 1.75658 19.2253 1.75658C21.287 1.75658 23.2644 2.19081 25.1029 3.0473C26.9358 3.90215 28.5656 5.11081 29.9464 6.63988C30.9868 7.79287 31.8692 9.13349 32.5861 10.6341C31.9024 11.3459 18.6691 25.1496 18.6691 25.1496L13.757 20.0333L20.2902 13.2275L23.6401 16.717L25.2865 15.0028L19.4577 8.93143L9.6328 19.1657L19.4577 29.3999L37.0132 11.0815C37.0132 11.0815 36.0595 8.8774 34.1356 6.62132C32.518 4.72441 30.4377 3.12936 27.9536 1.87905C25.4742 0.632043 22.5027 -0.00012207 19.122 -0.00012207C15.7756 -0.00012207 12.8659 0.622971 10.4736 1.85101C8.07582 3.08235 6.07427 4.65843 4.52441 6.53637C2.97257 8.41679 1.8186 10.5092 1.09454 12.7553C0.368501 15.0061 0.000335693 17.1628 0.000335693 19.1657C0.000335693 21.1343 0.368105 23.2634 1.09454 25.4956C1.8186 27.7248 2.97297 29.8176 4.5256 31.7158C6.07624 33.6127 8.07819 35.2069 10.4744 36.4543C12.8671 37.7001 15.7764 38.3318 19.122 38.3318C21.3903 38.3318 23.4722 38.0374 25.3107 37.4572C27.1539 36.8762 28.832 36.0824 30.2979 35.0989C31.7639 34.1162 33.0615 32.9739 34.1344 31.6857C36.0651 29.3665 37.0037 27.2461 37.0037 27.2461L30.8375 20.8065Z" fill="#777777"/>
</g>
</g>
<defs>
<clipPath id="clip0_2_7">
<rect width="192" height="40" fill="white"/>
</clipPath>
</defs>
</svg>
