<svg width="192" height="16" viewBox="0 0 192 16" fill="none" xmlns="http://www.w3.org/2000/svg">
<path fill-rule="evenodd" clip-rule="evenodd" d="M22.0135 3.79418C22.7739 3.79418 23.5343 3.86577 24.3327 3.86577C25.1311 3.86577 25.9295 3.79418 26.7659 3.79418V4.2953H26.5378C25.3592 4.2953 24.3707 5.04698 23.6103 5.79866L20.7588 8.69799L25.4352 14.1387C25.8154 14.6398 26.3857 15.0694 27.0701 15.0694V15.5705C26.4618 15.5705 25.8154 15.5347 25.2071 15.5347C24.6368 15.5347 24.0665 15.5705 23.4962 15.5705C23.3442 15.2483 22.8119 14.5682 22.5457 14.3177L18.6297 9.73602L22.4317 5.79866C22.6598 5.58389 23.2301 5.01119 23.2301 4.65324C23.2301 4.3311 22.4317 4.2953 22.2036 4.2953H22.0135V3.79418ZM14.6376 15.0694H14.9038C15.5501 15.0694 16.2345 14.9978 16.2345 14.1029V5.26174C16.2345 4.36689 15.5501 4.2953 14.9038 4.2953H14.6376V3.79418C15.36 3.79418 16.4626 3.86577 17.375 3.86577C18.3636 3.86577 19.5042 3.79418 20.2646 3.79418V4.2953H20.0364C19.5042 4.2953 18.5537 4.3311 18.5537 5.26174V14.1029C18.5537 15.0336 19.5042 15.0694 20.0364 15.0694H20.2646V15.5705C19.5042 15.5705 18.3636 15.4989 17.375 15.4989C16.4626 15.4989 15.36 15.5705 14.6376 15.5705V15.0694ZM30.9101 15.0694H31.1762C31.8226 15.0694 32.5069 14.9978 32.5069 14.1029V5.26174C32.5069 4.36689 31.8226 4.2953 31.1762 4.2953H30.9101V3.79418C31.6325 3.79418 32.697 3.86577 33.6095 3.86577C34.522 3.86577 35.5865 3.79418 36.461 3.79418V4.2953H36.1949C35.5485 4.2953 34.8261 4.36689 34.8261 5.26174V14.1029C34.8261 14.962 35.5485 15.0694 36.1949 15.0694H36.461V15.5705C35.5865 15.5705 34.522 15.4989 33.6095 15.4989C32.7351 15.4989 31.6705 15.5705 30.9481 15.5705V15.0694H30.9101ZM51.9731 12.2416L52.0111 5.87025C52.0111 4.47427 50.9846 4.2953 50.4523 4.2953H50.0341V3.79418C50.8705 3.79418 51.7069 3.86577 52.5814 3.86577C53.3418 3.86577 54.0642 3.79418 54.8246 3.79418V4.2953H54.5584C53.798 4.2953 52.9616 4.43848 52.9616 6.44295V14.1029C52.9616 14.7114 52.9616 15.2841 53.0756 15.821H52.3913L43.0384 6.12081V13.0649C43.0384 14.5324 43.3426 15.0336 44.7493 15.0336H45.0535V15.5347C44.2551 15.5347 43.4947 15.4631 42.7343 15.4631C41.8978 15.4631 41.0614 15.5347 40.263 15.5347V15.0336H40.5291C41.7838 15.0336 42.164 14.2461 42.164 12.8859V5.79866C42.164 4.86801 41.3275 4.2953 40.5291 4.2953H40.301V3.79418C40.9854 3.79418 41.7077 3.86577 42.3921 3.86577C42.9244 3.86577 43.4566 3.79418 43.9889 3.79418L51.9731 12.2416ZM5.77901 6.94407C7.71802 7.83893 9.73307 8.80537 9.73307 11.4899C9.73307 14.4251 6.84357 16 4.14416 16C2.92753 16 1.63485 15.7494 0.532279 15.2483L0.49426 15.2125L0 11.8837H0.760397L0.798416 11.9553C1.17861 13.5302 2.39525 15.1051 4.33426 15.1051C6.12119 15.1051 7.41386 13.9239 7.41386 12.3132C7.41386 10.4877 5.89307 9.73602 4.33426 8.98434C2.54733 8.12528 0.532279 7.12304 0.532279 4.36689C0.532279 1.68233 2.47129 0 5.62693 0C6.34931 0 7.1097 0.107382 7.83208 0.214765L8.59248 0.322148L9.01069 3.29307H8.28832L8.2503 3.22148C7.98416 1.71812 6.95763 0.894854 5.36079 0.894854C3.72594 0.894854 2.66139 1.93289 2.66139 3.57942C2.50931 5.40492 4.10614 6.1566 5.77901 6.94407ZM73.6824 11.311L74.4048 11.4899V11.5973C74.4048 11.5973 73.8725 14.783 73.7964 14.8188C72.8079 15.3915 70.1846 16 68.5877 16C63.1129 16 59.577 12.7427 59.577 7.73154C59.577 3.47204 63.6071 0 68.5117 0C70.3366 0 72.1236 0.536913 74.0626 1.14541L74.1386 1.18121L74.4048 4.47427H73.6064V4.40268C73.1881 2.14765 71.5153 0.930649 68.7018 0.930649C66.3065 0.930649 62.2384 2.36242 62.2384 7.69575C62.2384 11.8121 65.318 15.1409 69.082 15.1409C71.3632 15.1409 73.2262 13.6734 73.6444 11.4541L73.6824 11.311ZM79.7275 15.0694H79.9556C80.602 15.0694 81.2863 14.9978 81.2863 14.1029V5.26174C81.2863 4.36689 80.602 4.2953 79.9556 4.2953H79.7275V3.79418C80.8301 3.79418 82.7311 3.86577 84.2519 3.86577C85.7727 3.86577 87.6737 3.79418 88.8903 3.79418C88.8523 4.51007 88.8523 5.61969 88.9283 6.37136L88.3961 6.51454C88.32 5.40492 88.0919 4.54586 86.1909 4.54586H83.6436V8.94855H85.7727C86.8753 8.94855 87.1034 8.37584 87.2174 7.48098H87.7497C87.7117 8.12528 87.7117 8.80537 87.7117 9.44966C87.7117 10.094 87.7117 10.7383 87.7497 11.3826L87.2174 11.4899C87.1034 10.4877 87.0654 9.80761 85.8107 9.80761H83.6436V13.745C83.6436 14.8546 84.7081 14.8546 85.8487 14.8546C88.0158 14.8546 88.9664 14.7114 89.5367 12.8143L90.0309 12.9217C89.8028 13.8166 89.5747 14.7114 89.4226 15.6063C88.282 15.6063 86.1909 15.5347 84.556 15.5347C82.9212 15.5347 80.7541 15.6063 79.7275 15.6063V15.0694ZM95.6578 5.5123C95.6578 4.2953 94.9735 4.2953 94.2511 4.2953H94.023V3.79418C94.8214 3.79418 95.7719 3.86577 96.9125 3.86577C98.0151 3.86577 98.9275 3.79418 99.6499 3.79418V4.2953H99.4218C98.6994 4.2953 97.9771 4.3311 97.9771 5.5123V11.3468C97.9771 13.4944 98.8515 14.962 101.399 14.962C103.794 14.962 104.859 13.566 104.859 11.2752V5.5123C104.859 4.2953 104.174 4.2953 103.566 4.2953H103.186V3.79418C103.908 3.79418 104.669 3.86577 105.391 3.86577C106.113 3.86577 106.798 3.79418 107.482 3.79418V4.2953H107.102C106.608 4.2953 105.923 4.3311 105.923 5.5123V10.8814C105.923 14.7114 103.756 15.7852 101.057 15.7852C97.5588 15.7852 95.6198 14.604 95.6198 11.5973V5.5123H95.6578ZM113.375 4.61745C112.006 4.61745 111.968 4.9038 111.702 6.1566H111.17C111.246 5.69128 111.322 5.22595 111.398 4.72483C111.474 4.25951 111.474 3.79418 111.474 3.29307H111.892C112.044 3.79418 112.501 3.79418 112.995 3.79418H122.348C122.842 3.79418 123.298 3.75839 123.336 3.25727L123.754 3.32886C123.678 3.79418 123.602 4.22371 123.564 4.68904C123.526 5.15436 123.526 5.58389 123.526 6.04922L122.994 6.22819C122.956 5.58389 122.88 4.61745 121.663 4.61745H118.698V13.6018C118.698 14.8904 119.306 15.0336 120.219 15.0336H120.561V15.5347C119.838 15.5347 118.584 15.4631 117.595 15.4631C116.493 15.4631 115.238 15.5347 114.516 15.5347V15.0336H114.858C115.846 15.0336 116.379 14.962 116.379 13.6376V4.61745H113.375ZM127.556 15.0694H127.823C128.469 15.0694 129.153 14.9978 129.153 14.1029V5.26174C129.153 4.36689 128.469 4.2953 127.823 4.2953H127.556V3.79418C128.241 3.79418 129.343 3.86577 130.218 3.86577C131.13 3.86577 132.233 3.79418 133.069 3.79418V4.2953H132.803C132.157 4.2953 131.472 4.36689 131.472 5.26174V14.1029C131.472 14.962 132.157 15.0694 132.803 15.0694H133.069V15.5705C132.195 15.5705 131.092 15.4989 130.18 15.4989C129.305 15.4989 128.203 15.5705 127.518 15.5705V15.0694H127.556ZM148.467 7.26622C147.973 5.61969 147.137 4.2953 144.399 4.2953C141.434 4.2953 139.875 6.47875 139.875 9.41387C139.875 12.2416 141.396 15.1051 144.855 15.1051C146.794 15.1051 148.087 13.9597 148.543 12.2774L149.038 12.349C148.81 13.2438 148.657 14.1745 148.581 15.0694C147.517 15.4989 146.11 15.821 144.437 15.821C140.331 15.821 137.328 13.745 137.328 9.52125C137.328 5.72707 140.597 3.54362 144.323 3.54362C146.452 3.54362 147.137 4.15213 148.848 4.40268C148.848 5.33333 148.848 6.26398 149 7.23043L148.467 7.26622ZM158.847 5.65548H158.809L157.136 10.4161H160.52L158.847 5.65548ZM156.185 13.1365C155.995 13.7092 155.767 14.1387 155.767 14.4608C155.767 14.962 156.528 15.0336 157.098 15.0336H157.288V15.5347C156.566 15.4989 155.843 15.4631 155.083 15.4631C154.436 15.4631 153.79 15.4989 153.144 15.5347V15.0336H153.258C153.98 15.0336 154.55 14.6398 154.855 13.9239L157.782 6.22819C158.01 5.58389 158.352 4.76063 158.467 4.11633C159.037 3.93736 159.759 3.57942 160.139 3.40045C160.177 3.40045 160.215 3.36465 160.291 3.36465C160.33 3.36465 160.368 3.36465 160.406 3.40045C160.444 3.54362 160.52 3.6868 160.558 3.82998L163.865 12.6711C164.093 13.2438 164.322 13.8881 164.55 14.3893C164.778 14.8546 165.158 15.0694 165.766 15.0694H165.88V15.5705C165.082 15.5347 164.246 15.4989 163.371 15.4989C162.497 15.4989 161.584 15.5347 160.634 15.5705V15.0694H160.824C161.242 15.0694 161.926 14.9978 161.926 14.5682C161.926 14.3535 161.774 13.8881 161.584 13.3512L160.862 11.3826H156.756L156.185 13.1365ZM173.674 13.9239C173.674 14.604 174.169 14.8188 174.777 14.8546C175.499 14.9262 176.336 14.9262 177.172 14.8188C177.933 14.7472 178.579 14.3177 178.921 13.9239C179.187 13.566 179.377 13.0649 179.491 12.7069H180.024C179.834 13.6734 179.568 14.604 179.377 15.5705C177.781 15.5705 176.184 15.4989 174.587 15.4989C172.99 15.4989 171.393 15.5705 169.796 15.5705V15.0694H170.063C170.709 15.0694 171.431 14.9978 171.431 13.9239V5.26174C171.431 4.36689 170.709 4.2953 170.063 4.2953H169.796V3.79418C170.747 3.79418 171.697 3.86577 172.648 3.86577C173.598 3.86577 174.511 3.79418 175.423 3.79418V4.2953H174.967C174.283 4.2953 173.712 4.3311 173.712 5.19016V13.9239H173.674ZM190.935 6.26398C190.821 5.15436 190.061 4.11633 188.806 4.11633C187.362 4.11633 186.563 4.9038 186.563 6.26398C186.563 9.05593 192 8.23266 192 12.2774C192 14.604 189.947 15.821 187.628 15.821C186.601 15.821 185.651 15.4631 184.738 15.0694C184.662 14.2103 184.51 13.3512 184.434 12.4922L184.928 12.3848C185.156 13.8166 186.031 15.0694 187.742 15.0694C188.958 15.0694 189.985 14.3535 189.985 13.1365C189.985 10.1655 184.662 11.0604 184.662 7.01566C184.662 4.83221 186.335 3.50783 188.692 3.50783C189.187 3.50783 190.745 3.6868 191.278 3.75839C191.278 4.54586 191.354 5.36913 191.468 6.19239L190.935 6.26398Z" fill="#777777"/>
</svg>
